# xmcd CD database file
#
# Track frame offsets:
#	150
#	25245
#	48706
#	62487
#	79443
#	97996
#	119088
#	139967
#	148444
#	191110
#	205958
#	210713
#	215105
#	219550
#	231806
#
# Disc length: 3208 seconds
#
# Revision: 0
# Processed by: cddbd v1.5.2PL0 Copyright (c) Steve Scherf et al.
# Submitted via: CDex 1.70beta2
#
DISCID=fd0c860f
DTITLE=Joan Cartwright - In Pursuit of a Melody
DYEAR=2005
DGENRE=Jazz
TTITLE0=A Night In Tunisia
TTITLE1=Blues Medley
TTITLE2=Don't Get Around Much Anymore
TTITLE3=Pop Musik
TTITLE4=Misunderstood
TTITLE5=In a Mellow Tone
TTITLE6=Honeysuckle Rose
TTITLE7=Urban Commando
TTITLE8=Sweet Return
TTITLE9=Jazz Hotline
TTITLE10=In Studio
TTITLE11=Mary Lou's Lesson
TTITLE12=Delray Blues
TTITLE13=Sweet Return (solo piano)
TTITLE14=In a Sentimental Mood
EXTD=YEAR: 2005
EXTT0=
EXTT1=
EXTT2=
EXTT3=
EXTT4=
EXTT5=
EXTT6=
EXTT7=
EXTT8=
EXTT9=
EXTT10=
EXTT11=
EXTT12=
EXTT13=
EXTT14=
PLAYORDER=
